<?xml version="1.0" encoding="utf-8"?>
<!-- Generator: Adobe Illustrator 21.0.0, SVG Export Plug-In . SVG Version: 6.00 Build 0)  -->
<svg version="1.1" baseProfile="tiny" id="Layer_1" xmlns="http://www.w3.org/2000/svg" xmlns:xlink="http://www.w3.org/1999/xlink"
	 x="0px" y="0px" viewBox="0 0 292 290.9" xml:space="preserve">
<g>
</g>
<g>
</g>
<g>
</g>
<g>
	<g>
	</g>
	<g>
	</g>
	<g>
	</g>
</g>
<path fill="#EDEDED" stroke="#EDEDED" stroke-width="2" stroke-miterlimit="10" d="M38.3,160.6c0-49.9,33.3-92,78.9-105.3
	c1.3-0.4,2-1.7,1.7-3v0c-0.4-1.5-2-2.4-3.5-1.9C55.8,68,20.8,130,37,190.4l0.7,2.7l4.9-1.9C40.2,182.1,38.3,170.5,38.3,160.6z"/>
<path fill="#6DA945" stroke="#6CA945" stroke-width="3" stroke-miterlimit="10" d="M147.9,270.3c-49.9,0-92-33.3-105.3-78.9
	c-0.4-1.3-1.7-2.1-3-1.7l0,0c-1.5,0.4-2.3,1.9-1.9,3.4c4.6,15.9,11.4,28.5,22.2,41.4c40.8,48.6,115,53.4,163.6,12.6l-3.2-4.1
	C201.2,259,174.8,270.3,147.9,270.3z"/>
<path fill="#F7D512" stroke="#F5D513" stroke-width="4" stroke-miterlimit="10" d="M180.5,53.4L180.5,53.4c-0.3,1.4,0.3,3,1.7,3.4
	c46.2,12.2,75.3,53.4,75.3,103.9c0,32.8-14.4,62.3-37.3,82.4c-1,0.9-1.2,2.5-0.3,3.5l0,0c1,1.2,2.7,1.3,3.9,0.3
	c25.8-22.6,38.9-51.6,38.9-86.2c0-57.4-33.1-96.7-78.8-108.9C182.7,51.5,180.9,52.1,180.5,53.4z"/>
<g>
	<path fill="none" d="M133.1,16.3h-2.6v2.6C130.6,17.5,131.7,16.3,133.1,16.3z"/>
	<polygon fill="#CCCCCD" points="130.6,18.9 130.6,18.9 130.6,18.9 	"/>
	<polygon fill="#CCCCCD" points="133.1,16.3 133.1,16.3 133.1,16.3 	"/>
	<path fill="#CCCCCD" d="M131.4,22.6v38c0,1,0.8,1.8,1.8,1.8c1,0,1.8-0.8,1.8-1.8v-38c0-1,0.4-2.1,0.6-2.6c0.1-0.3,0.2-0.7,0.2-1
		c0-1.4-1.2-2.6-2.6-2.6h0c-1.4,0-2.6,1.2-2.6,2.6v0c0,0.4,0.1,0.7,0.2,1C131,20.5,131.4,21.6,131.4,22.6z"/>
	<path fill="#CCCCCD" d="M137.1,21.6v20.7c9.8-2.7,19.6,6.1,29.5,1.9l-6.3-9.7l6.3-11C156.8,27.7,146.9,18.9,137.1,21.6z"/>
</g>
</svg>
